<svg width="84" height="84" viewBox="0 0 84 84" fill="none" xmlns="http://www.w3.org/2000/svg">
<path d="M38.5 52.5C39.4283 52.5 40.3185 52.8688 40.9749 53.5251C41.6313 54.1815 42 55.0718 42 56V66.2865C41.8454 67.0792 41.9696 67.9009 42.3516 68.6124C42.7336 69.3239 43.3499 69.8815 44.0961 70.1905C44.8422 70.4995 45.6722 70.5409 46.4454 70.3078C47.2187 70.0747 47.8875 69.5814 48.3385 68.9115L72.261 44.9855C72.6533 44.5932 72.9645 44.1275 73.1768 43.615C73.3891 43.1024 73.4984 42.5531 73.4984 41.9983C73.4984 41.4435 73.3891 40.8941 73.1768 40.3816C72.9645 39.869 72.6533 39.4033 72.261 39.011L48.3385 15.0885C47.8875 14.4186 47.2187 13.9253 46.4454 13.6922C45.6722 13.4591 44.8422 13.5006 44.0961 13.8096C43.3499 14.1186 42.7336 14.6761 42.3516 15.3876C41.9696 16.0991 41.8454 16.9209 42 17.7135L42 28C42 28.9283 41.6313 29.8185 40.9749 30.4749C40.3185 31.1313 39.4283 31.5 38.5 31.5H31.5C30.5718 31.5 29.6815 31.8688 29.0251 32.5251C28.3688 33.1815 28 34.0718 28 35L28 49C28 49.9283 28.3688 50.8185 29.0251 51.4749C29.6815 52.1313 30.5718 52.5 31.5 52.5H38.5Z" stroke="white" stroke-width="7" stroke-linecap="round" stroke-linejoin="round"/>
<path d="M14 52.5L14 31.5" stroke="white" stroke-width="7" stroke-linecap="round" stroke-linejoin="round"/>
</svg>
