<svg width="40" height="40" viewBox="0 0 40 40" fill="none" xmlns="http://www.w3.org/2000/svg">
<path d="M26.6667 3.33331V6.66665" stroke="#1385CB" stroke-width="3.33333" stroke-linecap="round" stroke-linejoin="round"/>
<path d="M11.6667 36.6667V33.3333C11.6667 32.4493 12.0179 31.6014 12.643 30.9763C13.2681 30.3512 14.116 30 15 30H25C25.8841 30 26.7319 30.3512 27.357 30.9763C27.9822 31.6014 28.3334 32.4493 28.3334 33.3333V36.6667" stroke="#1385CB" stroke-width="3.33333" stroke-linecap="round" stroke-linejoin="round"/>
<path d="M13.3333 3.33331V6.66665" stroke="#1385CB" stroke-width="3.33333" stroke-linecap="round" stroke-linejoin="round"/>
<path d="M20 23.3333C22.7614 23.3333 25 21.0947 25 18.3333C25 15.5719 22.7614 13.3333 20 13.3333C17.2386 13.3333 15 15.5719 15 18.3333C15 21.0947 17.2386 23.3333 20 23.3333Z" stroke="#1385CB" stroke-width="3.33333" stroke-linecap="round" stroke-linejoin="round"/>
<path d="M31.6667 6.66669H8.33333C6.49238 6.66669 5 8.15907 5 10V33.3334C5 35.1743 6.49238 36.6667 8.33333 36.6667H31.6667C33.5076 36.6667 35 35.1743 35 33.3334V10C35 8.15907 33.5076 6.66669 31.6667 6.66669Z" stroke="#1385CB" stroke-width="3.33333" stroke-linecap="round" stroke-linejoin="round"/>
</svg>
