<svg width="40" height="40" viewBox="0 0 40 40" fill="none" xmlns="http://www.w3.org/2000/svg">
<path d="M25 35V26.6667C25 26.2246 24.8244 25.8007 24.5118 25.4882C24.1993 25.1756 23.7754 25 23.3333 25H16.6667C16.2246 25 15.8007 25.1756 15.4882 25.4882C15.1756 25.8007 15 26.2246 15 26.6667V35" stroke="#1385CB" stroke-width="3.33333" stroke-linecap="round" stroke-linejoin="round"/>
<path d="M29.6233 17.1833C29.2759 16.8507 28.8135 16.6651 28.3325 16.6651C27.8515 16.6651 27.3891 16.8507 27.0417 17.1833C26.2667 17.9225 25.2368 18.3349 24.1658 18.3349C23.0949 18.3349 22.065 17.9225 21.29 17.1833C20.9426 16.8512 20.4806 16.6658 20 16.6658C19.5194 16.6658 19.0574 16.8512 18.71 17.1833C17.9349 17.923 16.9047 18.3357 15.8333 18.3357C14.762 18.3357 13.7317 17.923 12.9567 17.1833C12.6092 16.8507 12.1468 16.6651 11.6658 16.6651C11.1849 16.6651 10.7224 16.8507 10.375 17.1833C9.62641 17.8977 8.63879 18.3079 7.60438 18.3342C6.56997 18.3605 5.56278 18.001 4.77884 17.3256C3.99491 16.6502 3.49033 15.7073 3.36331 14.6804C3.23629 13.6535 3.49592 12.616 4.09167 11.77L8.90667 4.79665C9.21218 4.34583 9.62349 3.97674 10.1046 3.72164C10.5858 3.46654 11.1221 3.33321 11.6667 3.33331H28.3333C28.8763 3.3331 29.4111 3.46555 29.8913 3.71913C30.3714 3.9727 30.7824 4.33974 31.0883 4.78831L35.9133 11.775C36.5092 12.6217 36.7685 13.6599 36.6407 14.6874C36.5129 15.7148 36.0071 16.6579 35.222 17.3328C34.4368 18.0077 33.4285 18.3661 32.3935 18.3382C31.3585 18.3102 30.3709 17.8979 29.6233 17.1816" stroke="#1385CB" stroke-width="3.33333" stroke-linecap="round" stroke-linejoin="round"/>
<path d="M6.66669 18.25V31.6667C6.66669 32.5507 7.01788 33.3986 7.643 34.0237C8.26812 34.6488 9.11597 35 10 35H30C30.8841 35 31.7319 34.6488 32.357 34.0237C32.9822 33.3986 33.3334 32.5507 33.3334 31.6667V18.25" stroke="#1385CB" stroke-width="3.33333" stroke-linecap="round" stroke-linejoin="round"/>
</svg>
