<svg width="341" height="93" viewBox="0 0 341 93" fill="none" xmlns="http://www.w3.org/2000/svg">
<path d="M14.72 14.08H-1.07288e-05V1.28H43.52V14.08H28.8V90.88H14.72V14.08ZM50.337 1.28H71.201C78.4543 1.28 83.745 2.98666 87.073 6.4C90.401 9.728 92.065 14.8907 92.065 21.888V27.392C92.065 36.6933 88.993 42.5813 82.849 45.056V45.312C86.2623 46.336 88.6517 48.4267 90.017 51.584C91.4677 54.7413 92.193 58.9653 92.193 64.256V80C92.193 82.56 92.2783 84.6507 92.449 86.272C92.6197 87.808 93.0463 89.344 93.729 90.88H79.393C78.881 89.4293 78.5397 88.064 78.369 86.784C78.1983 85.504 78.113 83.2 78.113 79.872V63.488C78.113 59.392 77.4303 56.5333 76.065 54.912C74.785 53.2907 72.5237 52.48 69.281 52.48H64.417V90.88H50.337V1.28ZM69.537 39.68C72.353 39.68 74.4437 38.9547 75.809 37.504C77.2597 36.0533 77.985 33.6213 77.985 30.208V23.296C77.985 20.0533 77.3877 17.7067 76.193 16.256C75.0837 14.8053 73.2917 14.08 70.817 14.08H64.417V39.68H69.537ZM112.89 52.736L95.866 1.28H110.842L120.442 34.176H120.698L130.298 1.28H143.994L126.97 52.736V90.88H112.89V52.736ZM170.837 1.28H188.501L202.197 54.912H202.453V1.28H214.997V90.88H200.533L183.637 25.472H183.381V90.88H170.837V1.28ZM245.814 92.16C238.902 92.16 233.611 90.1973 229.942 86.272C226.273 82.3467 224.438 76.8 224.438 69.632V22.528C224.438 15.36 226.273 9.81333 229.942 5.888C233.611 1.96266 238.902 -1.90735e-06 245.814 -1.90735e-06C252.726 -1.90735e-06 258.017 1.96266 261.686 5.888C265.355 9.81333 267.19 15.36 267.19 22.528V69.632C267.19 76.8 265.355 82.3467 261.686 86.272C258.017 90.1973 252.726 92.16 245.814 92.16ZM245.814 79.36C250.678 79.36 253.11 76.416 253.11 70.528V21.632C253.11 15.744 250.678 12.8 245.814 12.8C240.95 12.8 238.518 15.744 238.518 21.632V70.528C238.518 76.416 240.95 79.36 245.814 79.36ZM273.384 1.28H286.952L293.224 70.144H293.48L300.136 1.28H315.496L322.152 70.144H322.408L328.68 1.28H340.84L331.752 90.88H314.216L307.816 30.464H307.56L301.16 90.88H282.472L273.384 1.28Z" fill="white"/>
</svg>
